<?xml version="1.0" encoding="UTF-8"?>
<svg id="Layer_2" data-name="Layer 2" xmlns="http://www.w3.org/2000/svg" viewBox="0 0 249.55 73.95">
  <defs>
    <style>
      .cls-1 {
        fill: #f74843;
      }
    </style>
  </defs>
  <path class="cls-1" d="M44.86,14.69c-6.68,0-9.55,7.53-9.55,12.1,0,3.6,1.98,5.32,4.9,5.32,6.68,0,9.54-7.52,9.54-12.09,0-3.6-1.97-5.33-4.89-5.33ZM75.48,14.69c-6.68,0-9.55,7.53-9.55,12.1,0,3.6,1.98,5.32,4.9,5.32,6.68,0,9.55-7.52,9.55-12.09,0-3.6-1.98-5.33-4.9-5.33ZM75.48,14.69c-6.68,0-9.55,7.53-9.55,12.1,0,3.6,1.98,5.32,4.9,5.32,6.68,0,9.55-7.52,9.55-12.09,0-3.6-1.98-5.33-4.9-5.33ZM44.86,14.69c-6.68,0-9.55,7.53-9.55,12.1,0,3.6,1.98,5.32,4.9,5.32,6.68,0,9.54-7.52,9.54-12.09,0-3.6-1.97-5.33-4.89-5.33ZM44.86,14.69c-6.68,0-9.55,7.53-9.55,12.1,0,3.6,1.98,5.32,4.9,5.32,6.68,0,9.54-7.52,9.54-12.09,0-3.6-1.97-5.33-4.89-5.33ZM75.48,14.69c-6.68,0-9.55,7.53-9.55,12.1,0,3.6,1.98,5.32,4.9,5.32,6.68,0,9.55-7.52,9.55-12.09,0-3.6-1.98-5.33-4.9-5.33ZM106.1,14.69c-6.68,0-9.54,7.53-9.54,12.1,0,1.74.46,3.04,1.27,3.92.86.94,2.11,1.4,3.62,1.4,2.99,0,5.22-1.51,6.76-3.58,1.91-2.56,2.79-5.98,2.79-8.51,0-3.6-1.98-5.33-4.9-5.33ZM106.1,14.69c-6.68,0-9.54,7.53-9.54,12.1,0,1.74.46,3.04,1.27,3.92.86.94,2.11,1.4,3.62,1.4,2.99,0,5.22-1.51,6.76-3.58,1.91-2.56,2.79-5.98,2.79-8.51,0-3.6-1.98-5.33-4.9-5.33ZM75.48,14.69c-6.68,0-9.55,7.53-9.55,12.1,0,3.6,1.98,5.32,4.9,5.32,6.68,0,9.55-7.52,9.55-12.09,0-3.6-1.98-5.33-4.9-5.33ZM44.86,14.69c-6.68,0-9.55,7.53-9.55,12.1,0,3.6,1.98,5.32,4.9,5.32,6.68,0,9.54-7.52,9.54-12.09,0-3.6-1.97-5.33-4.89-5.33ZM0,0v48.53h117.73l2.08-7.73h12.17c1.16,0,2.25.1,3.24.31V0H0ZM19.58,36h-6.29l5.05-18.86-7.37,2.88,1.29-4.9,11.32-4.32h2.77l-6.77,25.2ZM39.07,36.29c-5.39,0-10.04-2.74-10.04-9.32,0-7.67,4.6-16.45,16.92-16.45,5.44,0,10.09,2.73,10.09,9.32,0,7.67-4.6,16.45-16.97,16.45ZM69.69,36.29c-5.39,0-10.04-2.74-10.04-9.32,0-7.67,4.6-16.45,16.92-16.45,5.44,0,10.09,2.73,10.09,9.32,0,7.67-4.6,16.45-16.97,16.45ZM100.32,36.29c-.85,0-1.69-.07-2.49-.22-4.26-.74-7.56-3.56-7.56-9.1,0-7.67,4.6-16.45,16.92-16.45,5.44,0,10.09,2.73,10.09,9.32,0,2.92-.67,6-2.17,8.69-2.45,4.39-7.13,7.76-14.79,7.76ZM130.34,45.12h-5.24l-.89,3.41h9.87c.11-.27.17-.56.17-.89,0-1.72-1.43-2.52-3.91-2.52ZM106.1,14.69c-6.68,0-9.54,7.53-9.54,12.1,0,1.74.46,3.04,1.27,3.92.86.94,2.11,1.4,3.62,1.4,2.99,0,5.22-1.51,6.76-3.58,1.91-2.56,2.79-5.98,2.79-8.51,0-3.6-1.98-5.33-4.9-5.33ZM75.48,14.69c-6.68,0-9.55,7.53-9.55,12.1,0,3.6,1.98,5.32,4.9,5.32,6.68,0,9.55-7.52,9.55-12.09,0-3.6-1.98-5.33-4.9-5.33ZM44.86,14.69c-6.68,0-9.55,7.53-9.55,12.1,0,3.6,1.98,5.32,4.9,5.32,6.68,0,9.54-7.52,9.54-12.09,0-3.6-1.97-5.33-4.89-5.33ZM44.86,14.69c-6.68,0-9.55,7.53-9.55,12.1,0,3.6,1.98,5.32,4.9,5.32,6.68,0,9.54-7.52,9.54-12.09,0-3.6-1.97-5.33-4.89-5.33ZM75.48,14.69c-6.68,0-9.55,7.53-9.55,12.1,0,3.6,1.98,5.32,4.9,5.32,6.68,0,9.55-7.52,9.55-12.09,0-3.6-1.98-5.33-4.9-5.33ZM75.48,14.69c-6.68,0-9.55,7.53-9.55,12.1,0,3.6,1.98,5.32,4.9,5.32,6.68,0,9.55-7.52,9.55-12.09,0-3.6-1.98-5.33-4.9-5.33ZM44.86,14.69c-6.68,0-9.55,7.53-9.55,12.1,0,3.6,1.98,5.32,4.9,5.32,6.68,0,9.54-7.52,9.54-12.09,0-3.6-1.97-5.33-4.89-5.33ZM44.86,14.69c-6.68,0-9.55,7.53-9.55,12.1,0,3.6,1.98,5.32,4.9,5.32,6.68,0,9.54-7.52,9.54-12.09,0-3.6-1.97-5.33-4.89-5.33ZM44.86,14.69c-6.68,0-9.55,7.53-9.55,12.1,0,3.6,1.98,5.32,4.9,5.32,6.68,0,9.54-7.52,9.54-12.09,0-3.6-1.97-5.33-4.89-5.33Z"/>
  <path class="cls-1" d="M101.45,32.11c-1.51,0-2.76-.46-3.62-1.4v-2.18h10.38c-1.54,2.07-3.77,3.58-6.76,3.58Z"/>
  <path class="cls-1" d="M128.51,54.91h-6.03l-1.78,6.77h6.23c3.51,0,6.19-1.15,6.19-3.74,0-1.98-1.39-3.03-4.61-3.03ZM130.34,45.12h-5.24l-.89,3.41-.54,2.07h5.49c2.33,0,4.35-.62,4.92-2.07.11-.27.17-.56.17-.89,0-1.72-1.43-2.52-3.91-2.52ZM130.34,45.12h-5.24l-.89,3.41-.54,2.07h5.49c2.33,0,4.35-.62,4.92-2.07.11-.27.17-.56.17-.89,0-1.72-1.43-2.52-3.91-2.52ZM128.51,54.91h-6.03l-1.78,6.77h6.23c3.51,0,6.19-1.15,6.19-3.74,0-1.98-1.39-3.03-4.61-3.03ZM128.51,54.91h-6.03l-1.78,6.77h6.23c3.51,0,6.19-1.15,6.19-3.74,0-1.98-1.39-3.03-4.61-3.03ZM130.34,45.12h-5.24l-.89,3.41-.54,2.07h5.49c2.33,0,4.35-.62,4.92-2.07.11-.27.17-.56.17-.89,0-1.72-1.43-2.52-3.91-2.52ZM130.34,45.12h-5.24l-.89,3.41-.54,2.07h5.49c2.33,0,4.35-.62,4.92-2.07.11-.27.17-.56.17-.89,0-1.72-1.43-2.52-3.91-2.52ZM128.51,54.91h-6.03l-1.78,6.77h6.23c3.51,0,6.19-1.15,6.19-3.74,0-1.98-1.39-3.03-4.61-3.03ZM115.11,28.53c-2.45,4.39-7.13,7.76-14.79,7.76-.85,0-1.69-.07-2.49-.22v37.88h151.72V28.53H115.11ZM139.6,57.22c0,5.79-5.2,8.78-12.67,8.78h-13.9l4.7-17.47,2.08-7.73h12.17c1.16,0,2.25.1,3.24.31,3.33.68,5.51,2.51,5.51,5.42,0,2.63-1.98,4.82-4.94,5.79,1.78.58,3.81,2.27,3.81,4.9ZM170.57,56.43c-1.98,7.52-7.52,9.86-15.34,9.86-5.99,0-10.39-2.52-10.39-7.31,0-.86.1-1.51.4-2.55l4.15-15.63h6.48l-4.15,15.7c-.2.75-.3,1.29-.3,1.91,0,2.23,1.68,3.56,4.95,3.56,4,0,6.68-1.8,7.67-5.47l4.15-15.7h6.53l-4.15,15.63ZM191.54,61.97c4.75,0,7.77-2.27,9.06-4.86h-6.43l1.03-3.82h12.67l-3.41,12.71h-5.35v-2.48c-2.03,1.8-4.9,2.77-9.05,2.77-6.93,0-13.01-3.74-13.01-10.44,0-8.46,7.47-15.33,19.84-15.33,7.47,0,11.42,3.34,12.36,7.95l-6.03,1.15c-1.29-2.98-3.27-4.78-7.52-4.78-7.17,0-11.97,4.78-11.97,10.33,0,4.28,3.02,6.8,7.81,6.8ZM227.81,51.17c4.25,1.55,6.97,2.95,6.97,6.88,0,2.7-1.23,4.75-3.71,6.19-2.72,1.58-5.29,2.05-9.4,2.05-5.64,0-10.14-3.42-10.14-7.13l5.49-2.16c.35,2.92,2.23,4.97,6.19,4.97,2.87,0,4.9-1.15,4.9-3.38,0-2.06-1.88-2.92-4.9-4.11-3.96-1.55-6.83-3.38-6.83-6.91,0-4.25,4.5-7.05,10.69-7.05,4.65,0,8.21,2.16,9.25,4.71l-5.35,2.16c-1.08-1.91-2.47-2.55-4.5-2.55s-3.61.9-3.61,2.59c0,1.58,1.78,2.59,4.95,3.74ZM130.34,45.12h-5.24l-.89,3.41-.54,2.07h5.49c2.33,0,4.35-.62,4.92-2.07.11-.27.17-.56.17-.89,0-1.72-1.43-2.52-3.91-2.52ZM128.51,54.91h-6.03l-1.78,6.77h6.23c3.51,0,6.19-1.15,6.19-3.74,0-1.98-1.39-3.03-4.61-3.03ZM128.51,54.91h-6.03l-1.78,6.77h6.23c3.51,0,6.19-1.15,6.19-3.74,0-1.98-1.39-3.03-4.61-3.03ZM130.34,45.12h-5.24l-.89,3.41-.54,2.07h5.49c2.33,0,4.35-.62,4.92-2.07.11-.27.17-.56.17-.89,0-1.72-1.43-2.52-3.91-2.52ZM130.34,45.12h-5.24l-.89,3.41-.54,2.07h5.49c2.33,0,4.35-.62,4.92-2.07.11-.27.17-.56.17-.89,0-1.72-1.43-2.52-3.91-2.52ZM128.51,54.91h-6.03l-1.78,6.77h6.23c3.51,0,6.19-1.15,6.19-3.74,0-1.98-1.39-3.03-4.61-3.03Z"/>
</svg>